<?xml version="1.0" encoding="utf-8"?>
<svg xmlns="http://www.w3.org/2000/svg" xml:space="preserve" xmlns:xlink="http://www.w3.org/1999/xlink" width="1096" height="1096">
    <desc>Eye Pattern</desc>

    <svg id="star" x="0" y="0" width="140" height="140">
        <g fill="rgb(0, 0, 0)">
            <rect x="0" y="0" width="140" height="140" fill='transparent'/>
            <path x="0" y="0" d="M0 0 v140 h140 v-140 h-140Z M15 15 a300 300 0 0 0 110 0 a300 300 0 0 0 0 110 a300 300 0 0 0 -110 0 a300 300 0 0 0 0 -110Z" />
            <path x="40" y="40" d="M40 40 a80 80 0 0 0 60 0 a80 80 0 0 0 0 60 a80 80 0 0 0 -60 0 a80 80 0 0 0 0 -60Z" />
        </g>
    </svg>
    
    <svg id="square" x="150" y="0" width="140" height="140">
        <g fill="rgb(0, 0, 0)">
            <rect x="0" y="0" width="140" height="140" fill='transparent'/>
            <path x="0" y="0" d="M0 0 v140 h140 v-140 h-140Z M20 20 h100 v100 h-100 v-100Z" />
            <path x="40" y="40" d="M40 40 h60 v60 h-60 v-60Z" />
        </g>
    </svg>
    
    <svg id="dent-square" x="300" y="0" width="140" height="140">
        <g fill="rgb(0, 0, 0)">
            <rect x="0" y="0" width="140" height="140" fill='transparent'/>
            <path x="0" y="0" d="M0 0 a818 818 0 0 0 140 0 a818 818 0 0 0 0 140 a818 818 0 0 0 -140 0 a818 818 0 0 0 0 -140Z
                M20 20 a418 418 0 0 0 100 0 a418 418 0 0 0 0 100 a418 418 0 0 0 -100 0 a418 418 0 0 0 0 -100Z" fill-rule="evenodd"/>
            <path x="40" y="40" d="M40 40 a80 80 0 0 0 60 0 a80 80 0 0 0 0 60 a80 80 0 0 0 -60 0 a80 80 0 0 0 0 -60Z" />
        </g>
    </svg>
    
    <svg id="diamond" x="450" y="0" width="140" height="140">
        <g fill="rgb(0, 0, 0)">
            <rect x="0" y="0" width="140" height="140" fill='transparent'/>
            <path x="0" y="0" d="M0 0 h110 l30 30 v110 h-110 l-30 -30 v-110Z
                M20 20 h82 l18 18 v82 h-82 l-18 -18 v-82Z" fill-rule="evenodd"/>
            <path x="40" y="40" d="M40 40 h30 l30 30 v30 h-30 l-30 -30 v-30Z" />
        </g>
    </svg>
    
    <svg id="roundness" x="600" y="0" width="140" height="140">
        <g fill="rgb(0, 0, 0)">
            <rect x="0" y="0" width="140" height="140" fill='transparent'/>
            <path x="0" y="0" d="M0,10c0,-5.43379 4.56621,-10 10,-10l120,0c5.43379,0 10,4.56621 10,10l0,120c0,5.43379 -4.56621,10 -10,10l-120,0c-5.43379,0 -10,-4.56621 -10,-10l0,-120z
                M20,30 c0,-5.43379 4.56621,-10 10,-10l80,0 c5.43379,0 10,4.56621 10,10l0,80c0,5.43379 -4.56621,10 -10,10l-80,0c-5.43379,0 -10,-4.56621 -10,-10l0,-80z" fill-rule="evenodd"
                />
            <path x="40" y="40" d="M40,50 c0,-5.43379 4.56621,-10 10,-10l40,0c5.43379,0 10,4.56621 10,10l0,40c0,5.43379 -4.56621,10 -10,10l-40,0c-5.43379,0 -10,-4.56621 -10,-10l0,-40z" fill="rgb(0, 0, 0)"/>
        </g>
    </svg>
    
    <svg id="roundness-circle" x="750" y="0" width="140" height="140">
        <g fill="rgb(0, 0, 0)">
            <rect x="0" y="0" width="140" height="140" fill='transparent'/>
            <path x="0" y="0" d="M0,10c0,-5.43379 4.56621,-10 10,-10l120,0c5.43379,0 10,4.56621 10,10l0,120c0,5.43379 -4.56621,10 -10,10l-120,0c-5.43379,0 -10,-4.56621 -10,-10l0,-120z
                M20,30 c0,-5.43379 4.56621,-10 10,-10l80,0 c5.43379,0 10,4.56621 10,10l0,80c0,5.43379 -4.56621,10 -10,10l-80,0c-5.43379,0 -10,-4.56621 -10,-10l0,-80z" fill-rule="evenodd"
                />
            <circle cx="70" cy="70" r="30" fill="rgb(0, 0, 0)" />
        </g>
    </svg>
    
    <svg id="right-eye" x="0" y="150" width="140" height="140">
        <g fill="rgb(0, 0, 0)">
            <rect x="0" y="0" width="140" height="140" fill='transparent'/>
            <path x="0" y="0" d="M0,0 l120,0c10.86758,0 20,9.13242 20,20 l0,120 l-120,0 c-10.86758,0 -20,-9.13242 -20,-20 l0,-120Z
                M20,20 l80,0 c10.86758,0 20,9.13242 20,20 l0,80 l-80,0 c-10.86758,0 -20,-9.13242 -20,-20 l0,-60Z" fill-rule="evenodd"
                />
            <path x="40" y="40" d="M40,40 l40,0 c10.86758,0 20,9.13242 20,20 l0,40 l-40,0 c-10.86758,0 -20,-9.13242 -20,-20 l0,-20z"
                fill="rgb(0, 0, 0)" />
        </g>
    </svg>
    
    <svg id="left-eye" x="150" y="150" width="140" height="140">
        <g fill="rgb(0, 0, 0)">
            <rect x="0" y="0" width="140" height="140" fill='transparent'/>
            <path x="0" y="0" d="M0,20 c0,-10.86758 9.13242,-20 20,-20 l120,0 l0,120 c0,10.86758 -9.13242,20 -20,20 l-120,0 l0,-100Z
                M20,40 c0,-10.86758 9.13242,-20 20,-20 l80,0 l0,80 c0,10.86758 -9.13242,20 -20,20 l-80,0 l0,-60Z" fill-rule="evenodd"
                />
            <path x="40" y="40" d="M40,60 c0,-10.86758 9.13242,-20 20,-20 l40,0 l0,40 c0,10.86758 -9.13242,20 -20,20 l-40,0 l0,-20Z"
                fill="rgb(0, 0, 0)" />
        </g>
    </svg>
    
    <svg id="leaf-1" x="300" y="150" width="140" height="140">
        <g fill="rgb(0, 0, 0)">
            <rect x="0" y="0" width="140" height="140" fill='transparent'/>
            <path x="0" y="0" d="M0,30 c0,-16.30137 13.69863,-30 30,-30 l110,0 l0,110 c0,16.30137 -13.69863,30 -30,30 l-80,0c-16.30137,0 -30,-13.69863 -30,-30l0,-80Z
                M20,40 c0,-10.86758 9.13242,-20 20,-20 l80,0 l0,80 c0,10.86758 -9.13242,20 -20,20l-60,0c-10.86758,0 -20,-9.13242 -20,-20l0,-60Z" fill-rule="evenodd"
                />
            <path x="40" y="40" d="M40,60 c0,-10.86758 9.13242,-20 20,-20 l40,0 l0,40 c0,10.86758 -9.13242,20 -20,20l-20,0c-10.86758,0 -20,-9.13242 -20,-20l0,-20Z"
                fill="rgb(0, 0, 0)" />
        </g>
    </svg>
    
    <svg id="leaf-2" x="300" y="300" width="140" height="140">
        <g fill="rgb(0, 0, 0)">
            <rect x="0" y="0" width="140" height="140" fill='transparent'/>
            <path x="0" y="0" d="M0,30 c0,-16.30137 13.69863,-30 30,-30 l80,0 c16.30137,0 30,13.69863 30,30 l0,110 l-110,0 c-16.30137,0 -30,-13.69863 -30,-30l0,-80Z
                M20,40 c0,-10.86758 9.13242,-20 20,-20 l60,0 c10.86758,0 20,9.13242 20,20 l0,80 l-80,0 c-10.86758,0 -20,-9.13242 -20,-20l0,-60Z" fill-rule="evenodd"
                />
            <path x="40" y="40" d="M40,60 c0,-10.86758 9.13242,-20 20,-20 l20,0 c10.86758,0 20,9.13242 20,20 l0,40 l-40,0 c-10.86758,0 -20,-9.13242 -20,-20l0,-20Z"
                fill="rgb(0, 0, 0)" />
        </g>
    </svg>
    
    <svg id="leaf-3" x="300" y="450" width="140" height="140">
        <g fill="rgb(0, 0, 0)">
            <rect x="0" y="0" width="140" height="140" fill='transparent'/>
            <path x="0" y="0" d="M0,30 c0,-16.30137 13.69863,-30 30,-30 l80,0 c16.30137,0 30,13.69863 30,30 l0,80 c0,16.30137 -13.69863,30 -30,30 l-110,0 l0,-110Z
                M20,40 c0,-10.86758 9.13242,-20 20,-20 l60,0 c10.86758,0 20,9.13242 20,20 l0,60 c0,10.86758 -9.13242,20 -20,20 l-80,0 l0,-80Z" fill-rule="evenodd"
                />
            <path x="40" y="40" d="M40,60 c0,-10.86758 9.13242,-20 20,-20 l20,0 c10.86758,0 20,9.13242 20,20 l0,20 c0,10.86758 -9.13242,20 -20,20 l-40,0 l0,-40Z"
                fill="rgb(0, 0, 0)" />
        </g>
    </svg>
    
    <svg id="leaf-4" x="300" y="600" width="140" height="140">
        <g fill="rgb(0, 0, 0)">
            <rect x="0" y="0" width="140" height="140" fill='transparent'/>
            <path x="0" y="0" d="M0,0 l110,0 c16.30137,0 30,13.69863 30,30l0,80c0,16.30137 -13.69863,30 -30,30l-80,0c-16.30137,0 -30,-13.69863 -30,-30 l0,-80Z
                M20,20 l80,0 c10.86758,0 20,9.13242 20,20l0,60c0,10.86758 -9.13242,20 -20,20l-60,0c-10.86758,0 -20,-9.13242 -20,-20l0,-60Z" fill-rule="evenodd"
                />
            <path x="40" y="40" d="M40,40 l40,0 c10.86758,0 20,9.13242 20,20l0,20c0,10.86758 -9.13242,20 -20,20l-20,0c-10.86758,0 -20,-9.13242 -20,-20l0,-20Z"
                fill="rgb(0, 0, 0)" />
        </g>
    </svg>
    
    <svg id="cushion" x="450" y="150" width="140" height="140">
        <g fill="rgb(0, 0, 0)">
            <rect x="0" y="0" width="140" height="140" fill='transparent'/>
            <path x="0" y="0" d="M0 0 v140 h140 v-140 h-140Z
                M17 17 l53 3 l53 -3 l-3 53 l3 53 l-53 -3 l-53 3 l3 -53 l-3 -53Z" fill-rule="evenodd"
                />
            <path x="40" y="40" d="M40,40 l30,4 l30,-4 l-4,30 l4,30 l-30,-4 l-30,4 l4,-30 l-4,-30Z"
                fill="rgb(0, 0, 0)" />
        </g>
    </svg>
    
    <svg id="sharp" x="600" y="150" width="140" height="140">
        <g fill="rgb(0, 0, 0)">
            <rect x="0" y="0" width="140" height="140" fill='transparent'/>
            <path x="0" y="0" d="M0 0 l4,140 h136 v-136 l-140,-4Z
                M20,20 l100,4 v96 h-96 l-4,-100Z" fill-rule="evenodd"
                />
            <path x="40" y="40" d="M40,40 l60,4 v56 h-56 l-4,-60Z"
                fill="rgb(0, 0, 0)" />
        </g>
    </svg>
    
    <svg id="shield" x="750" y="150" width="140" height="140">
        <g fill="rgb(0, 0, 0)">
            <rect x="0" y="0" width="140" height="140" fill='transparent'/>
            <path x="0" y="0" d="M0,10 a250,250 0 0 0 70,-10 a250,250 0 0 0 70,10 a180,180 0 0 0 0,120 a250,250 0 0 1 -140,0 a180,180 0 0 0 0,-120Z
                M20,25 a130,130 0 0 0 50,-10 a130,130 0 0 0 50,10 a180,180 0 0 0 0,95 a180,180 0 0 1 -100,0 a180,180 0 0 0 0,-95Z" fill-rule="evenodd"
                />
            <path x="40" y="40" d="M40,45 a95,95 0 0 0 30,-5 a95,95 0 0 0 30,5 a95,95 0 0 0 0,55 a95,95 0 0 1 -60,0 a95,95 0 0 0 0,-55Z"
                fill="rgb(0, 0, 0)" />
        </g>
    </svg>
</svg>